<svg xmlns="http://www.w3.org/2000/svg" viewBox="0 0 623.08 645.8"><defs><style>.cls-1{fill:none;stroke:#1a1a1a;stroke-linecap:round;stroke-linejoin:round;}</style></defs><g id="Gerardo"><path class="cls-1" d="M603.27,464.15l4.21.71,3.95,1,3.76,1.22c20.29,6.61,32.45,23.79,45.45,39.47l1.67,1.87,1.68,1.68,1.67,1.57a30.91,30.91,0,0,0,10.3,6l1.67.5,3.35.81,3.2.46,3,.31,1.37.1,1.32.1,1.12.2.86.31.61.5.15.36,0,.4,0,.46-.2.61-.66,1.32a64.16,64.16,0,0,1-10,11.16l-4.21,3.65-4.31,3.35c-11.32,8.53-23.95,15.08-35.76,22.88L633.2,568l-4.06,3-3.91,3.2C602,594.68,588.39,623.76,579.68,653l-2.59,9-2.38,9.08-2.18,9" transform="translate(-153.82 -188.25)"/><path class="cls-1" d="M559.49,590l.2,1.22.26,1.32c2.69,10.93,6,20.31,7.45,31.86l.66,4.61.61,4.77c3.7,33.21,3.69,66.7,11,99.48l1.27,5.23,1.37,5.17" transform="translate(-153.82 -188.25)"/><path class="cls-1" d="M559.84,591.58l-1.16-5.18-1.22-4.92c-8.68-32.41-23.1-55-56.26-65.54l-4.82-1.57-4.87-1.62L486.69,511a62.78,62.78,0,0,1-25.41-17.65l-1.83-2.08-1.57-2a54.41,54.41,0,0,1-7.35-12.53l-.21-.36-.2-.1-.15,0-.1.31-.06.61.06.5c2,9.67,8.58,19.5,15.77,26.08l4.06,3.75,4.21,3.7c11.9,10.19,30.42,26.84,31.4,43.88l.05,1.68-.05,1.62-.35,3-.56,2.85-.66,2.58-.66,2.39-.46,2.28-.15,1.06-.05,1.07.2.91.21.36.3.35.46.26c3.34,1,6.91-.49,10.29-.46l3.25-.05,1.62.1,1.68.25,1.62.31c7.22,1.69,13.82,6.3,18.82,11.67L543.2,590l2,2.79c2.6,3.49,4,7.52,5.13,11.67l.4,1.52.41,1.63.41,1.77.35,1.93" transform="translate(-153.82 -188.25)"/><path class="cls-1" d="M561.21,699.93v2.59l-.1,2.43-.2,2.24-.31,2-.45,1.73c-1.32,4.72-12.77,6.89-16.64,8l-1.67.41-1.78.46c-11.39,2.64-22.84,4.92-34.29,7.3l-6.95,1.37-7.21,1.47-7.35,1.47-14.71,2.89c-23.18,4.52-46.5,9.37-69.85,12.84l-4.27.61-4.05.5c-10.89,1.15-24.32,2.44-34.85-1.21l-1.93-.76-1.83-.87-1.72-1-1.63-1.12L347.85,742l-1.42-1.37c-6.53-6.46-10.25-17.56-12.78-26.18l-.92-3.09-.91-3.25c-4.42-16.32-8.16-32.86-14-48.75l-3.4-9.13-3.65-9L307,632.41l-1.88-4.26c-5.82-13-11.64-26.06-18.06-38.8l-1.17-2.29-1.16-2.18c-3.58-6.76-9.07-16.65-15.78-20.44l-1.72-.86-1.83-.66-1.83-.46-2-.31-2.08-.15-2.18,0-2.33.26-2.44.56c-7.77,2.15-14.32,8.26-19.53,14.15l-1.77,2-1.73,2.13c-15.07,18.94-24,42.64-30,65.89l-1.47,6.19-1.27,6.14-1.16,6.09-1,5.88-.81,5.73-.66,5.58-1.11,11-.66,5.58L190.7,705l-1,6-.61,3.09-.66,3.2-.76,3.35-.86,3.45-1,3.55-1.07,3.7-1.22,3.86-1.31,4c-7.57,21.5-15,42.52-21.16,64.52l-1.62,5.78-.76,2.79-.71,2.64-.66,2.49-.61,2.38-.56,2.18-.46,2-.4,1.83-.36,1.62-.25,1.37-.2,1.17-.16,1v1.42l.11.46.15.35.25.21.31.1h.35l.91-.2c6.8-3.37,13-3.12,20.4-3.25h4.41l2.44,0h2.63c20.81.42,41.64,1.08,62.45.41l8.52-.36,4.11-.25c13.27-1,28.25-2.78,40.33-8.73l2.08-1.11,2-1.17,1.82-1.22,1.73-1.32,1.62-1.37,1.52-1.42,1.37-1.52,1.27-1.57,1.22-1.62c11.87-17.26,7.07-50.59,5-70l-1-6.95-1.12-7c-6.62-38.22-19.33-76.56-32.92-112.87L284.75,608l-1.53-3.9-1.52-3.61L280.28,597c-4.73-11.08-9.87-22.56-16.84-32.46l-1-1.32-.76-1.12-.66-1c-1.26-2.33-1.32-3.2-.05-5.48l.5-.71.61-.76a39.84,39.84,0,0,1,9.89-7.46l2.54-1.42,2.89-1.52,3.25-1.62,3.55-1.68,3.8-1.77,4-1.83,8.37-3.7c20.25-8.94,40.05-18.35,59.25-29.37l4.36-2.49,4.06-2.38c12.86-7,25.77-18.34,41.45-16.13l1.21.2,1.17.25,1,.36,1,.51.91.6c2.29,1.75,4.29,5.82,5.43,8.37l1.07,2.34,1.11,2.43a141,141,0,0,0,16.24,26.94l2.18,2.84,2.28,2.79,2.38,2.84c18.22,21.1,40.75,38.47,64,53.62l4.87,3.09,5,3.1,5.13,3.09,5.32,3.15" transform="translate(-153.82 -188.25)"/><path class="cls-1" d="M529.81,599.34l-2-1.68L526,595.94l-1.73-1.73c-14-14.23-18.57-29.92-12.93-49.1l.66-2.28.71-2.13.66-2.08c1-3.33,3.09-7.51,1.92-11l-.3-.86-.41-.92c-1.8-3.41-5.53-6.84-8.42-9.33l-1.82-1.57-2-1.68-2.13-1.72L498,509.75l-2.34-1.87L490.7,504c-9.32-7.49-19.31-14.78-27.59-23.49l-1.63-1.72L460,477.08a58.23,58.23,0,0,1-10.4-17l-.86-2.33-.76-2.29-.66-2.13c-2.77-9.82-3.36-23.09,8.77-26.58l.36-.15.25-.05.1-.05-.05,0h-.25c-7.29.26-15.73,4.8-21.25,9.28l-1.68,1.42-1.62,1.52c-10.82,10.22-21.08,31.05-15.63,46.32l.71,1.77.87,1.68" transform="translate(-153.82 -188.25)"/><path class="cls-1" d="M776.4,763.63c-38.49-.15-77-.6-115.46-1.91l-5-.26-4.82-.2-4.56-.25c-13.91-.88-27.83-1.82-41.55-4.42l-2.38-.5-2.23-.56c-5.46-1.31-14-3.89-17-9.08l-.51-.91-.35-.92-.25-1" transform="translate(-153.82 -188.25)"/><path class="cls-1" d="M526.11,478.25l1.83.56,2.08.51,2.43.45,2.69.41,3,.35c7.58.76,17.12,1.14,24.55-.66l2.08-.66,1.83-.71c9.32-4.1,18-12.05,24.6-19.73l2-2.33L595,454.1l1.72-2.28,1.73-2.43c3.39-4.89,6.78-9.73,10-14.71l1.42-2.24,2.89-4.71c6-9.78,9.46-19.65,12.08-30.8l1-3.75,1-3.86,1.12-4.05,1.22-4.32,1-4.46.71-4.36c1-7.35,1-16.3,3.2-23.39l.51-1.21.66-.92c2.14-2.13,5.1.12,5.12,2.94l.1,1.37,0,1.68,0,1.93-.15,2.23c-.42,9.35-3.68,17.06-4.92,26.22l-.71,4.47-1.42,9.64c-.74,4.24-1.59,11.22-5.94,13.39l-1,.4-.92.21h-.81l-.61-.21-.2-.25-.15-.25-.1-.41,0-.56c-.11-2.85.83-6.92,1.21-9.79l.66-4,1.32-8.37a65.47,65.47,0,0,0,.51-17.35l-.51-3.91-.25-1.78-.41-1.67-.4-1.62c-1.6-5.05-5.56-9.05-10.15-11.52l-2-.91-1.77-.61c-5.39-1.19-10.89.66-16.34-.2l-1.47-.15-1.62-.21-3.5-.45-3.7-.66-3.61-.76-1.67-.41c-1.26-.33-6.21-1.54-6.95-2.79V342l.1-.21.2-.2.71-.3.92-.26.61-.15.71-.2.91-.26,1.06-.35,1.32-.51,1.48-.56,3.24-1.16,3.4-1,3.25-.66,3.09-.3c5.39-.26,9.65.25,14.21,3.24l1.67,1.12,1.62,1.22,1.47,1.27,1.32,1.21.46.56.35.51.16.4-.11.41-.15.15-.25.21-.41.15-.5.2-.71.25-1.83.46-1.17.31" transform="translate(-153.82 -188.25)"/><path class="cls-1" d="M616,328.35l-.66-.2-.41-.1-.3-.11c-6.79-1.43-14-2.12-20.8-3.34l-5.22-1-2.44-.56-2.13-.6-.91-.36-.76-.35-.61-.36-.51-.41-.35-.35-.21-.41-.1-.35,0-.36.21-.35.35-.31.46-.25.61-.25.76-.21.81-.2,1.93-.35,4.36-.56,4.36-.61,2.13-.25,2.13-.11,2.13.11,2.13.25,2.13.4,2.13.56,4.27,1.27,2.13.66,2,.71,1.78.71,1.47.71,1.22.71.91.76.76.76.66.81,1.22,1.83.46.91.3.82.1.71-.2.45-.46.31-.76.1-1.06-.05-1.42-.26-3.3-.66-1.47-.35-.61-.2-.51-.11" transform="translate(-153.82 -188.25)"/><path class="cls-1" d="M581,319.07l-1.83,1.26-1.62,1.22L576,322.72l-1.32,1.17a22.12,22.12,0,0,0-5.94,8l-.45,1.73-.26,1.62c0,5.69,1.81,12.09,2.18,18.06l.26,2.84.2,2.84.35,2.64.56,2.33a41.24,41.24,0,0,0,6.75,12.12l1,1.22.92,1.32c1.61,2.58,2.15,6.78.3,9.44l-.51.61-.61.55-.65.46-.72.3-.81.26-1.62.2c-5.75,0-4.66.72-9.23,2.89l-.92.26-2,.2c-5.12,0-7.75-2.54-11.77-5l-1.37-.66-1.73-.61-1.92-.56-2-.41-2.08-.3-2.13-.1-2.13-.05-2.19-.05-1-.21-.86-.3-.76-.51-.61-.71-.46-.86c-.76-2.26-1.12-6,1-7.71l.61-.56.76-.56,1-.55,1.11-.56" transform="translate(-153.82 -188.25)"/><path class="cls-1" d="M582.11,420l-1.67.76-1.83.76-4,1.52c-13.1,5.07-23.45,6.95-37.14,3l-3.9-1.47-2-.86-2.13-1c-3.45-1.74-6.89-3.2-10.2-5.22l-.86-.61L517,415.8a64.88,64.88,0,0,1-5.28-5.47l-.25-.36-.05-.25.1-.21.36-.15.55-.1h.81c3.79,0,7.46.48,11.22.71l5.93.36,2.89.3a122.67,122.67,0,0,0,12.63,2.08l4,.36,2,.1,1.83.1,1.67.1c3.67.27,7.38.22,11.06.36l1.67.1,1.52.15c2.7.44,9.37,1.19,11.11,3.65l.71,1,.46,1Z" transform="translate(-153.82 -188.25)"/><path class="cls-1" d="M587.79,423l-1.16.81-1,.71-.91.61-.81.56c-4.51,3-8.11,7.14-13,9.53l-2.28.92-2.49.71c-4,.75-8.24,1.72-12.32,1.47l-1,0-1.11-.05-5-.26-1.17-.05c-3.81-.14-4.06,0-7.71-1.42l-1-.4-2.33-.92c-8.68-3.49-10.18-5.32-16-11.77l-.56-.66-.91-1.16-.76-1-.56-.86-.46-.91-.4-1-.46-1.21-.46-1.48-.65-1.72-.92-1.62-1.16-1.42-1.32-1.07-.61-.46-.51-.4-.35-.31v-.25l.1-.1.25-.1c8.47-.34,18,.32,26.43.35l2.49.15,2.38.21,2.23.3,2,.31,1.88.3,1.72.31,1.52.25,2.84.25,2.85.05,3.29-.05,3.5-.1,3.3-.05,3.15.25,1.57.26,1.62.45,3.3,1.22c4.47,2.38,9.76,4.19,13.34,7.92l.2.35.15.76-.25.86Z" transform="translate(-153.82 -188.25)"/><path class="cls-1" d="M507.14,347.07l-2.08.15-2.13.25-2.24.36A92.44,92.44,0,0,0,479,355l-1.67.86-1.47.82c-1.93,1.17-4.49,2.73-5.13,5.07l-.25,1.42.1,1.57.31,1.63.5,1.67c2.34,5.84,4.08,9.56,5.13,16l1.37,6.95c1.57,7.73,3.41,16.13,7.76,22.83l1,1.42,1.07,1.32,1.17,1.21" transform="translate(-153.82 -188.25)"/><path class="cls-1" d="M536.56,338.85l-2,.2-1.93.21-1.72.15a103.78,103.78,0,0,1-17.71.35l-3-.5-2.94-.61-2.74-.56-5.07-1.17-1.27-.35-1.12-.41-1-.4-.56-.41-.15-.2v-.26l.05-.2.2-.25.71-.46.92-.46,1.16-.45,1.27-.46c8.13-2.53,13.61-3.93,22.22-2.84l2.08.41,1.88.5c5.44,1.42,7.28,3.09,10.29,7.61l.21.31.15.2,0,.05,1.42-.25,1.32-.31,1.11-.4,1-.51c2.67-1.64,3.63-4.25,3.85-7.25l.11-1.27.05-1.42c-.13-3.63-.49-9.83-3.76-12.33l-1.06-.71-1.22-.71-1.52-.61-1.78-.61c-5.8-1.84-11.8-3-17.7-4.41L517,307.7l-1.32-.3c-4.63-1-7.87-2-12.68-1.37l-1.17.15-1.32.26-1.42.25-2.94.66-2.79.76-1.22.41c-3,1-5.75,3.41-6.34,6.64l0,1,.1.41c.89,1.65,4.47,1.32,6,1.47l1.32-.05,2.94-.15,3.09-.26,3.2-.25c8.11-.7,15.71,1,23.69,1.73l2.38.1,2.18.05,2-.05,1.83-.1,3.25-.11,1.67.06h.81l.71-.16.61-.35.2-.26.21-.4.1-.46,0-.61,0-.71-.1-.86" transform="translate(-153.82 -188.25)"/><path class="cls-1" d="M606.46,445l-.5,3.55-.51,3.45-.46,3.35q-3,22.11-5.83,44.24l-.36,2.94-.35,2.64-.31,2.43c-.39,3.06-.84,6.05-1.37,9.08l-.25,1.37-.3,1.22a10.25,10.25,0,0,1-3.2,5.17l-1.22.92-1.42.91-1.72,1-2.08,1-2.39,1c-9.85,4-21.14,1.42-31-1l-5.94-1.62-5.93-1.93c-9.7-3.5-25.44-9.52-32.62-17.6l-.41-.61-.2-.46v-.25l.3-.05.51.05c7.8,2.5,14.91,4.55,23.13,5.53l3,.25,3,.2c12.51.48,25.4-2.74,32.77-13.69l.91-1.42.92-1.58" transform="translate(-153.82 -188.25)"/><path class="cls-1" d="M526.11,478.25l-2.49-1-2.28-1-2.08-1a51.41,51.41,0,0,1-14.1-9.49l-1.47-1.47L501,461.56c-9.59-9.65-18.61-20.13-27.34-30.54l-2.49-3.19L470,426.36l-1-1.47-.91-1.37c-3.47-5.66-4.84-11.49-5.58-18l-.26-2.28-.25-2.54c-1-12.38-1.43-25.13-1.27-37.54l.05-3,.1-2.89.26-5.58" transform="translate(-153.82 -188.25)"/><path class="cls-1" d="M461.18,351.74,462,340l.46-5.84.4-5.68.46-5.38c.67-6.53.77-14.76,2.54-21.05l.76-1.87,1-1.83,1.22-1.78,1.32-1.67,1.42-1.62,2.89-3.15,1.52-1.83.76-1,.81-1.17.82-1.26.81-1.37L480,282l.76-1.57.76-1.72.66-1.83.61-1.93.56-2,.91-4.16.71-4.21.61-4,.25-1.88.26-1.72.3-1.68.41-1.52.45-1.42.61-1.32.71-1.22.91-1.11,1.12-1,1.22-.86,1.47-.71,1.57-.56,1.78-.4,1.87-.26,2.08-.05,2.18.05,2.34.21,2.43.3,5.08.81,5.27.86,10.6,1.58,10.56,1.16,10.34.92,5,.35,4.92.31,4.82.25,4.66.25,4.47.31,4.31.3,4.16.41,4,.5,3.71.61,3.55.71,3.4.87,3.24.91,6.4,2,6.49,2.08,6.75,2.08,3.19,1,2.89,1.07,1.27.56,1.17.55,1.06.66c5.48,3.3,4.35,11.65,4.32,17.05L633,286l-.2,4.82,0,2.44,0,2.28.1,2.13.2,1.93.31,1.72.4,1.52.46,1.37.51,1.22,1,2.28.81,2.18.31,1.12.2,1.27.15,1.47.1,1.62,0,1.93,0,2.23a247.57,247.57,0,0,1-1.92,25.77l-.16.92-.15.6-.05.36v.05l.05-.1.15-.25.21-.41c3.88-7.7,4.93-16.51,7-24.81l.4-2.38,1.07-5c3.64-13,10.62-17.67,7.76-32.92l-.61-2.95-.71-2.89-.81-2.84-.86-2.69-.87-2.48a57.69,57.69,0,0,0-4.26-9.49l-.86-1.42-.91-1.27c-3.28-4.33-6.84-6.19-11-9.18l-.66-.61-.51-.66-.4-.71c-2.35-5.54,10.41-13.34,13.29-16.43l.2-.31.1-.2,0-.15-.25-.05H642a55.7,55.7,0,0,0-8.67,3.19l-.66.31-.81.35a58.49,58.49,0,0,0-15.32,10.7l-1.78,2-1.62,2.18" transform="translate(-153.82 -188.25)"/><path class="cls-1" d="M530,227.71l-.87-.71-.71-.56c-5.57-4.39-11-8.65-18-10.71l-3.15-.71-3.3-.45a65,65,0,0,0-19,1.16l-.15.11-.1.1.05.05.2.1.31,0h.4l.56.05c4.7-.57,8.87,2.56,12.63,5l1.27,1,1.11.91c1.44,1.26,4.7,4.08,1.12,5.07l-.81.2-1,.16-1.11.15-1.22.15c-8.72.64-19.08,1.49-27.29,4.47l-2.74,1.11-2.54,1.27c-8,4.63-11.06,11.6-12.32,20.44l-.41,2.74-.4,2.94-.36,3.05L452,268l-.66,6.65-1.27,13.8c-.89,10.13-1.56,19.66-.91,29.83l.15,2.28.2,2.23c.48,4.51.61,11.2,3.25,15.07l1.16,1.57L455,341l.51.91.45,1c2.5,6.36.3,8.24-.25,14.2l-.2,1.93-.1,2.23-.16,4.62-.1,2.28-.15,2.13-.15,1.83-.26,1.52-.35,1.17-.41.86-.4.56-.46.3-.51.1-.5-.1-.51-.25-.51-.41-.91-1.06-.71-1.27-.46-1.27-.3-1.06-.41-1c-1.56-2.55-5.25-2.88-6.69-6.59l-.26-.87-.15-.86c-.42-4.26,2.89-5.22,5.38-7.86l.55-.71.46-.81.36-1,.25-1.16c.84-4.46-.51-15.32-2.94-19.33l-.66-1.07-.76-.91c-4-4.13-7.52-.26-9.13,3.81l-.71,2-.56,2.24-.41,2.58-.25,2.79-.15,2.89v6a88.77,88.77,0,0,0,4.87,26.08l1.11,3.29,1.22,3.1c3.06,7.4,6.54,12.73,14,16.08l1,.51.81.45.76.51.61.66c1.83,2.51,1.69,8.86,1.82,11.77l.05,2.53v2.84c-.1,7.75-.32,15.5-.71,23.24l-.1,2.84-.15,2.94-.1,3-.15,3.25-.21,3.35" transform="translate(-153.82 -188.25)"/><path class="cls-1" d="M572.53,495.09,570,496.61,567.55,498c-18.21,9.86-35.3,7.77-54.48,1.37l-4.36-1.47-4.31-1.57c-14.94-5.66-42.55-18.44-46.62-35.71l-.25-1.32-.16-1.37" transform="translate(-153.82 -188.25)"/><path class="cls-1" d="M606.46,445,605,447.21c-1.73,3.46-11.26,16.53-1.82,16.94h0" transform="translate(-153.82 -188.25)"/><path class="cls-1" d="M507.14,347.07l2.69-.26,2.63-.3a169.66,169.66,0,0,0,17.76-3.14l1.32-.31,1.22-.25c5.84-1.39,7.71-2.77,11-7.71l.16-.26,0,0" transform="translate(-153.82 -188.25)"/><path class="cls-1" d="M467.27,335.65l-.41,1.88-.41,1.68-.35,1.52-.31,1.42-.25,1.27c-1.52,5.24-.88,9.43-8,8.32l-1.22-.21-1.47-.35c-8.86-2.92-12.22,4.43-16.08,3.4l-.41-.41-.3-.56-.16-.76-.05-1,.16-1.12.25-1.32.35-1.42,1-2.89.56-1.37.61-1.22,1.06-2,.51-1,.46-1.06.4-1.32.31-1.63.15-1,.1-1.07.1-1.26c.58-8.78.71-17.6,1.52-26.38l.92-11.06.5-5.48.51-5.28.25-2.43.26-2.38.25-2.19a81.78,81.78,0,0,1,14.26-40.68l1.06-1.37,1-1.27,1.06-1.11,1.07-1,2-1.72,1.83-1.37,1.68-1.12,1.36-1,1.07-.86.66-.87.35-.86.11-.91-.05-.92-.11-1.87.11-1,.3-1.06.46-1.12.66-1.06c4.46-6.32,15-8.5,22.21-8.37h4.93l1.47-.11,1.32-.2,1.06-.35.76-.51.31-.36.15-.4.15-1-.1-1.11-.15-2.39.2-1.11.2-.46.36-.45.4-.36.61-.35.66-.26.76-.2,1.73-.26,1.92-.1,2,.1,2,.16,1.88.3,1.72.31,1.53.3,1.31.25,1.07.16.86-.11.56-.3.3-.61.11-.76,0-.86.05-1.83.2-.76.46-.56.66-.35.86-.21h1l1.27.21,1.47.35,1.63.46,1.77.61,1.88.71,2,.66,2.08.61,2.18.5,2.23.31,2.18.15,2.13-.1,2-.31,1.78-.4,1.47-.61c4.79-2.64.07-6.83-4-7.15l-1.07-.05-.4.05-.31,0-.15.1,0,.15.1.15.31.21.45.25.66.25.76.31.87.3,2,.71,2.33.71,2.38.76,2.39.71,2.18.77,2,.71,1.72.71,1.42.71,1.12.76c3.59,2.83-1.17,7.07,4.77,6.95l1.52-.1,1.72-.16,3.35-.5,1.57-.16,1.42-.1H589l1.17.15,1,.31.92.56.76.76.71,1,1.37,2.28.86,1.17,1,1,1.22.86,1.47.56,1.63.45,1.77.36,1.73.4,1.62.51,1.47.76,1.17,1,1,1.37.91,1.57.92,1.72,1,1.83,1.27,1.93,1.57,1.87,1.88,1.93,2.18,1.93,2.39,2,2.53,2.18c10.78,9.71,20.33,23,20.09,38.15v26.22c.17,4.83-.22,9.46-.51,14.26l-.1,1.42" transform="translate(-153.82 -188.25)"/><path class="cls-1" d="M574.61,343.42l-1.12-.51a11.73,11.73,0,0,1-4.87-4.47l-.51-1" transform="translate(-153.82 -188.25)"/><path class="cls-1" d="M467.27,335.65l.55-2c3.37-10.37,11.42-17.77,20.55-23.24l2.38-1.32" transform="translate(-153.82 -188.25)"/><path class="cls-1" d="M551.93,611.31l1.67,12.28c2.94,22.08,5.39,44.23,6.95,66.45l.66,9.89" transform="translate(-153.82 -188.25)"/><path class="cls-1" d="M608.19,249.21l-1.12-2.73L606,243.79c-6.54-16.54-10-23.12-27.8-28.56L573.74,214l-4.16-1.07c-8.63-2.25-16.94-3.55-20.19-13.19l-.2-.71v-.4l.15-.1.31.1.35.3c8.51,10.26-3.84,11,3.1,16.84l1.06.76,1.27.82,1.42.81c6,3.25,12.37,5.71,18.16,9.08l1.17.71,1,.66c1,.73,4.59,3.2,4.57,4.61l-.2.26h-.51l-.76-.1-1.07-.16-1.37-.3-1.67-.3c-5.28-1-10.83-2-15.22-5.33l-1.88-1.52L557.31,224c-4.53-4.52-8.52-12.28-14.51-14.76l-1.17-.4-1.22-.31-1.26-.15-1.42,0c-6.08,0-11.72,2.39-17.56,3.09l-1.06.05h-.91c-2.59-.17-4.41-1.29-4.67-4.06v-.65l.05-.51.1-.36.05-.15-.05.25-.15.46,0,.61.1.71.41.81.35.36.46.4.61.41.71.35c2.8,1.17,6.23,1.75,9.13,2.84l2.38,1,1.12.56,1,.6.86.71.71.77.61.81.46.86.66,1.83.3,1.82.05,1.78-.2,1.62-.25,1.27-.31,1-.45.61-.56.2-.71-.15-.41-.2-.45-.25" transform="translate(-153.82 -188.25)"/><path class="cls-1" d="M613.11,245.71l2.43-4.36,1.17-2.23,1.06-2.33c2.49-5.93,4.33-13.81,1.37-19.89l-1.21-2.13-1.52-2c-5-5.58-12.71-11-20.25-12.07l-2.38-.15-2.33.2-1.12.25c-4.84.88-27.23,15.16-18-.45l.26-.41.1-.1-.05.05-.1.2-.56,1.17c-.21.74-.13,1.47.71,1.72l.46.11h1.16c4.08-.32,8-1.83,12.08-2l1.42.05,1.26.2,1.12.36,1.06.45c3,1.31,6.38,5.09,8.12,7.81l1.37,2.24,1.12,2.28c2.82,6,4.12,13,5.17,19.48l.71,5,.36,5,.05,5.07" transform="translate(-153.82 -188.25)"/></g></svg>