<svg xmlns="http://www.w3.org/2000/svg" viewBox="0 0 599.96 699.15"><defs><style>.cls-1{fill:none;stroke:#1a1a1a;stroke-linejoin:round;}</style></defs><g id="Marc"><path class="cls-1" d="M625.9,334.26c1.55,3.5.81,9.57.47,14a66,66,0,0,0-.13,10.31,63.48,63.48,0,0,0,1.07,8.35c.54,2.23,1.08,3.44,1.35,3.17s.34-2,.61-3.77.74-3.64,1.48-7.28A135,135,0,0,0,633,344.64c.54-5.4.54-10.72,1.35-15.17s2.36-8.22,3.17-13.27a71.82,71.82,0,0,0,.27-17.12c-.54-5.93-1.69-11.53-3.84-15.44s-5.39-6.26-8.43-6.87-5.86.67-8.42,2.09a53.74,53.74,0,0,0-5.73,3.91l-1,.87" transform="translate(-229.06 -181.58)"/><path class="cls-1" d="M568.34,458.4c1.55-4.32,2.83-9.71,5-16.45,2.63-8.08,6.47-18.06,8.43-23.05s2-5,1.68-3.5a54.46,54.46,0,0,0-1.08,6.47,7.64,7.64,0,0,0,.61,3.84,4.69,4.69,0,0,0,1.41,2.36,16.56,16.56,0,0,0,3.44,1.35A22.55,22.55,0,0,0,593,431a17.39,17.39,0,0,0,6.6-.41,21.94,21.94,0,0,0,6.68-3,33.45,33.45,0,0,0,5.79-4.86,34.48,34.48,0,0,0,5.06-5.73,48.19,48.19,0,0,0,3.91-7.21,19.06,19.06,0,0,0,1.41-4.71,20.2,20.2,0,0,1,1.62-5,29.55,29.55,0,0,1,3.1-4.25c.74-1.08.87-1.75,1.35-3.91a46.62,46.62,0,0,0,1.21-8.82,11.78,11.78,0,0,0-1.82-6.81,23.78,23.78,0,0,0-4-4.58,23.48,23.48,0,0,0-4.38-3.64,7.56,7.56,0,0,0-5.26-.88,25.9,25.9,0,0,0-6.94,2.63,62.71,62.71,0,0,0-6,3.91c-2.16,1.48-4.65,3-6.34,4.18s-2.42,1.68-3.23,2.29-1.62,1.14-1.48,1.55,1.34.67,2.89,1,3.44.67,4.72.94a6.78,6.78,0,0,1,2.43.74c.34.27.27.74.2,1.15s-.2.94-.4,1.68a8,8,0,0,0-.14,3c.2,1.21.88,2.76,1,4.11a11,11,0,0,1-.27,3.77,5.93,5.93,0,0,1-1.68,3.31,39.66,39.66,0,0,1-5.19,4.38c-1.75,1.21-3,1.88-3.64,2.42s-.74.88-.47,1.08.87.41,1.14.74.14.88-.06,2-.54,2.56-.75,3.57-.33,1.35.14,1.68a2.88,2.88,0,0,0,2.56.14,34.39,34.39,0,0,0,3.5-2.09,7.9,7.9,0,0,1,2.84-1c1-.2,2.29-.34,3.57-.54a25.55,25.55,0,0,1,3.91-.27,8,8,0,0,0,3.16-.07,3.94,3.94,0,0,0,2-2.09,13.77,13.77,0,0,1,1.14-2.49c.61-.88,1.69-1.75,2.36-2.7a8.82,8.82,0,0,0,1-2.83,4.72,4.72,0,0,0-.27-3,40.83,40.83,0,0,0-3.37-6.13,59.33,59.33,0,0,1-3.64-5.67,4.47,4.47,0,0,1-.26-3.3,6.63,6.63,0,0,1,.67-2.29,9,9,0,0,1,2.22-2.63,22.11,22.11,0,0,1,4.18-2.83,13,13,0,0,1,3.84-1.28,21.53,21.53,0,0,1,4-.54,6.52,6.52,0,0,1,2.76.34,4.37,4.37,0,0,1,1.82,1.08,3.28,3.28,0,0,1,.88,1.61,4.51,4.51,0,0,1,.13,2.5,5.42,5.42,0,0,1-2.09,2.76c-1.34,1-3.3,2.43-5,3.51a16.81,16.81,0,0,1-4.45,2.49,13,13,0,0,1-4.52.4,28.72,28.72,0,0,1-3.7-.4c-1.22-.14-2.56-.47-3.91-.61s-2.77-.06-3.71-.13a10.61,10.61,0,0,1-1.55-.14l-.2-.06.67-.27c.74-.27,2.16-.81,3.31-1.35a15.76,15.76,0,0,0,2.56-1.75,8.14,8.14,0,0,0,1.48-1.62,2.86,2.86,0,0,0,.4-1.48,2.54,2.54,0,0,0-.6-2,19.15,19.15,0,0,0-2.63-2.69,21.89,21.89,0,0,0-3.1-2.16,4.06,4.06,0,0,0-2.7-.47,11.43,11.43,0,0,0-3.84,1.08c-1.28.6-2.43,1.48-3.3,1.55s-1.35-.68-1.89-1.55a16.74,16.74,0,0,1-1.55-4.79,68,68,0,0,1-1.48-11.32,65,65,0,0,1,.88-9.91c.33-3.37.47-7.41.74-10.24s.6-4.52.2-6.4a21.68,21.68,0,0,0-2.63-6c-1.15-2.09-2.36-4.25-3.57-6.94a75.13,75.13,0,0,1-3.44-10.25c-1-4.18-1.89-9.16-2.49-13.48A85.37,85.37,0,0,1,575.89,287c-.07-2.36.2-3.57,1-2.63a32.18,32.18,0,0,1,3.1,6.2,48.27,48.27,0,0,1,1.82,5.19c.61,1.89,1.35,4.31,2,6.06a31.15,31.15,0,0,0,1.48,3.64,30.31,30.31,0,0,0,2.76,3.78c1.69,2,4.38,5.05,6.41,7.55s3.23,4.31,4.31,5.66a23.88,23.88,0,0,0,2.49,2.56c.47.4.47.4.47.27s.07-.27.61-2.09,1.69-5.12,2.29-6.88.95-2,1.21-2.15.41-.07.48.2a13.54,13.54,0,0,1-.48,2.69,82.16,82.16,0,0,0-1.48,8.63,23.41,23.41,0,0,0,.14,6.34c.27,1.68.47,3.3.67,4.85s.47,3,.67,4a3.34,3.34,0,0,0,1.15,2.36,6.5,6.5,0,0,0,3.64.67,9.72,9.72,0,0,0,4.31-1.61c1.49-1,3-2.43,4.86-3.84a37.43,37.43,0,0,1,5.18-3.71c1.22-.74,1.69-.67,1.35.74s-1.41,4-2.29,6.87-1.41,5.73-2.22,9.37-1.69,8.09-2.16,10.52-.67,3-.67,3.16-.07.27.81-2.09,2.56-7,3.5-9.84a40.58,40.58,0,0,0,1.68-6.33c.48-2.16,1.15-5.46,1.82-8.63" transform="translate(-229.06 -181.58)"/><path class="cls-1" d="M430.73,472.35c3.7,23.38,11.39,27.63,16.91,29.72s8.9,2.15,12.54,1.68,7.48-1.34,17-3.23,24.53-5,40-10.78,31.28-14.56,40.24-20.9,11-10.44,11-10.44" transform="translate(-229.06 -181.58)"/><path class="cls-1" d="M430.73,472.35c-1,8.22.2,9.63,1.28,10.31a3.69,3.69,0,0,0,3.16.2,12.37,12.37,0,0,1,3.51-.88c1.08.07,1.82.75,3,.81s2.63-.6,4.32-2.36,3.5-4.78,7.28-6.26,9.36-1.42,14.62-1.28a112.24,112.24,0,0,1,15.57,1.34,59.15,59.15,0,0,1,15.5,4.39c4.45,2.15,7.61,5,8.56,7.34" transform="translate(-229.06 -181.58)"/><path class="cls-1" d="M499.8,479c-15.36-7.41-19-8.69-21.36-9.5s-3.5-1.15-4-1.35l-.47-.14,1.28-.27a29.31,29.31,0,0,1,6.2-.8,19.3,19.3,0,0,1,6.4,1.41c2.42.81,5.46,1.82,7.61,2.56s3.24,1.08,3.85,1.28.53.2,1.61-.33a7.94,7.94,0,0,0,4.25-4.25c1.08-2.7.94-6.94.6-10.72a71.78,71.78,0,0,0-1.48-9.84c-.6-2.62-1.28-4.51-1.55-5.45l-.33-.95" transform="translate(-229.06 -181.58)"/><path class="cls-1" d="M502.37,440.67c-3.78-6.47-4.59-7.21-7.42-8.42s-7.82-2.77-12.2-4.38-8.22-3-11.39-3.84a15.39,15.39,0,0,0-7.61-.21,27.52,27.52,0,0,0-5.06,2,3.63,3.63,0,0,1-2.89.13,26.59,26.59,0,0,1-3.24-2,18.82,18.82,0,0,0-6.06-2.36c-2.83-.47-6.47-.47-8.83.54a9.21,9.21,0,0,0-4.32,4.51,31.72,31.72,0,0,0-1.82,3.44c-.27.94-.27,1.75.61,1.55a22.9,22.9,0,0,1,15.37-2.23c3.84.48,7.88,1.42,11.45,2.09a70.29,70.29,0,0,0,10.38,1.49c3.78.27,8.29.27,11.46.27a26.86,26.86,0,0,1,7,.54,35.19,35.19,0,0,1,6.54,2.56,8.91,8.91,0,0,1,3.23,2.62,6.81,6.81,0,0,1,1.55,3.78c.07,1.48-.54,3.1-3.3,5.12a74.86,74.86,0,0,1-27.16,10.65c-5.12.81-10.38.81-14.15-.54s-5.93-3.91-8.5-6.87-5.45-6.14-7.41-8.77-3-4.44-3.84-5.12-1.42-.06-1.21.88,1,2.29,2.62,5.53,4,8.42,6.27,12.06a33.19,33.19,0,0,0,6.67,8c2.16,2,4.25,3.84,7,4.79a19.25,19.25,0,0,0,10,0,64.74,64.74,0,0,0,12.06-4.25A77.24,77.24,0,0,0,488.48,459a68.8,68.8,0,0,0,9.57-6.6,15.5,15.5,0,0,0,4.65-5.46,7.25,7.25,0,0,0,.74-2.83" transform="translate(-229.06 -181.58)"/><path class="cls-1" d="M430.73,472.35c0-15.84-4.52-24.53-7.48-30.87a86.51,86.51,0,0,1-5.67-15.7c-1.34-5.19-2.56-11.53-3.64-17.39s-1.95-11.12-1.14-17.86,3.3-14.89,4.51-21.56,1.22-12.07,2.77-18.07,4.45-12.87,10-30.53" transform="translate(-229.06 -181.58)"/><path class="cls-1" d="M430.12,320.37c6.47-28.64,14.42-40.84,20.28-53.57" transform="translate(-229.06 -181.58)"/><path class="cls-1" d="M557,469.11c-12.26,9.64-16.51,12.2-21.49,14.69s-10.92,4.86-12.67,3.44.6-6.74,3.23-12.2,5.73-11.12,9.17-17.72,7.34-14.29,9.3-23.66,1.88-20.62,3.16-27.43,3.64-9.3,7-12.4A134.54,134.54,0,0,1,569.49,382c7.14-4.92,17-11.12,22-15.3s5-6.33,5-7.41,0-1.15-17.93,1.28-53.65,7.14-53.65,7.14" transform="translate(-229.06 -181.58)"/><path class="cls-1" d="M424.32,337.76h16.51c2.3,0,3.91,0,5.13.61s2,1.68,3.1,2.83a16.81,16.81,0,0,0,3.37,3c.94.61,1.55.61,1.82.2a2.35,2.35,0,0,0-.07-2.22,23.16,23.16,0,0,0-2.16-3.64,48.57,48.57,0,0,0-3.43-4.51,14.62,14.62,0,0,0-5-3.78,19.87,19.87,0,0,0-8.29-1.48,24.87,24.87,0,0,0-9.1,1.62,4,4,0,0,0-2.63,3.37,19.81,19.81,0,0,0-.2,3.23c0,.74,0,1,.27,1a4.56,4.56,0,0,0,.81-.4" transform="translate(-229.06 -181.58)"/><path class="cls-1" d="M472,252.64c-20,13.89-28.51,13.08-35.52,12.07s-12.53-2.29-13.61-5.06,2.15-7.14,4.18-10.31,2.89-5.12,7.75-3.71,13.48,6.14,19.47,8.09,9.3,1.08,12.81.14,7.14-1.82,11.72-2.77,10.05-2.09,13-3.16,3.37-2,1.15-3.51-7.08-3.64-15.57-7.34-20.69-9-25.54-11.53-2.29-2.29.4-3a44.1,44.1,0,0,0,8.43-3.64c2.76-1.35,5.25-2.49,8.76-4.31s7.95-4.45,12.06-6.95,7.95-5,11.19-7,5.73-3.71,7.14-4.92,1.82-2,1.62-2.9a5.27,5.27,0,0,0-1.69-2.23,15.17,15.17,0,0,0-2.29-1.21c-.87-.34-1.88-.81-2.36-1s-.53-.2-.06-1.21,1.28-3,1.75-4l.4-1,.48,2c.4,2.09,1.28,6.14,1.75,8.77a41.38,41.38,0,0,0,1.14,5.72,35,35,0,0,0,3.24,6.61,40.88,40.88,0,0,0,4.31,5.32c1.28,1.42,2.36,2.63,4.92,5.06a123.09,123.09,0,0,0,10,8.69,82.49,82.49,0,0,0,9.17,5.86c3.17,1.76,6.74,3.85,10.24,5.6s6.94,3.3,8.63,4.18,1.55,1.14-.27,1.48-5.46.94-8.49,1.41-5.6.75-8.49.88a76.62,76.62,0,0,1-9.37-.4,95.24,95.24,0,0,1-9.44-1.49c-3-.67-5.52-1.34-6.87-1.68s-1.28-.34-1.15.13a6,6,0,0,0,1.76,2.77,32.29,32.29,0,0,0,6.46,4.71,76.49,76.49,0,0,0,8.77,4.25c3.3,1.42,7,3,11.32,4.65a137.59,137.59,0,0,0,14.29,4.72c5,1.35,10.1,2.29,14.75,3.1s8.77,1.41,12.41,1.88,6.73.95,9.09,1.08,4.11.07,4.72-.47.27-1.55-1-2.76a56.42,56.42,0,0,0-5-4.11c-1.62-1.42-2.83-2.7-5-4.86s-5.33-5.25-7.41-7.27-3.17-3.1-5.19-5.06l-8.43-8.09c-3.44-3.23-7.34-6.87-11.05-9.84s-7.14-5.32-10.38-7.61a100.78,100.78,0,0,1-8.76-6.81,31.49,31.49,0,0,1-5-5.25c-.67-1,0-.68,4.65,1s13.28,4.85,21.1,7.95,14.69,6.06,20.35,8.09a122.59,122.59,0,0,0,13.61,3.91c3.64.87,6.47,1.61,10,2.35s7.76,1.55,10.38,2.16,3.71,1.08,4.18,2.29.41,3.17,1.35,5.39a18.94,18.94,0,0,0,4.72,6.34c1.75,1.62,3.3,2.29,5.73,5.19A86.46,86.46,0,0,1,627,261c1.55,2.9,1.28,3.57,1.14,3.91s-.13.27-.33-1.82a36.21,36.21,0,0,0-1.49-9c-.94-2.77-2.63-4-4.24-5.53a30.08,30.08,0,0,1-4.72-5.32c-1.42-2-2.63-4.45-4.11-6.61a38.08,38.08,0,0,0-5.53-6.2,75.87,75.87,0,0,0-8.29-6.74,90.74,90.74,0,0,0-10-6.06c-3.37-1.76-6.67-3.17-9.64-4.45a56.32,56.32,0,0,1-6-2.83c-.41-.41,1.28-.14,5.93,1.55s12.19,4.58,17,6.8a72.65,72.65,0,0,1,9,4.92,74.2,74.2,0,0,1,7.62,5,64,64,0,0,1,6.47,6.27,44.28,44.28,0,0,1,6.2,7.35,43.88,43.88,0,0,1,3.84,9.7c.94,3.37,1.61,6.54,2.22,8.69s1.15,3.31,2.36,3.51,3-.34,4.85-1.48a41.18,41.18,0,0,0,5.73-4.92c1.89-1.89,3.84-3.78,5.39-5.33a23,23,0,0,1,3.71-3.17c.87-.47,1.35-.27.94.41a37.89,37.89,0,0,1-3,3.44c-1.42,1.55-2.9,3.43-5.59,6.4s-6.41,6.94-8.56,9.23-2.83,2.76-4.79,3.44a57.27,57.27,0,0,1-8.89,2.36c-3.78.74-8.09,1.41-11.53,1.88a42.46,42.46,0,0,0-8.29,1.62c-2.29.81-4.24,2.09-5.12,4.31s-.81,5.4,2.29,8.43" transform="translate(-229.06 -181.58)"/><path class="cls-1" d="M610.33,283.64l-8.83,7.15" transform="translate(-229.06 -181.58)"/><path class="cls-1" d="M469.88,254.13c9.3,1.14,17.86,2.15,22.38,2.69s4.78.47,5,.27a2.52,2.52,0,0,0,.14-1.14v-1.08c0-.27,0-.27,1.55.33s4.51,1.89,6.54,2.84,3,1.55,4,2.08a17.49,17.49,0,0,0,4.24,1.55,35.13,35.13,0,0,0,6.07,1c1.62.06,2.36-.21,3.5-.21a12.8,12.8,0,0,1,4.25.88c1.69.61,3.51,1.48,5.26,1.95s3.43.48,5.86.88a30.93,30.93,0,0,1,8,2.29,22.35,22.35,0,0,1,6.13,4.31,26.25,26.25,0,0,0,5.33,4.32,23.79,23.79,0,0,0,5.66,1.82,4.75,4.75,0,0,1,2.63,1.28,22.29,22.29,0,0,0,2.56,2.42,30.27,30.27,0,0,1,5.05,4.59,16.15,16.15,0,0,1,2.23,4.38" transform="translate(-229.06 -181.58)"/><path class="cls-1" d="M578.32,427.93c0,44.48,0,52.44,2.09,58.23s6.2,9.51,10,14.29a105.4,105.4,0,0,1,7.28,10.78" transform="translate(-229.06 -181.58)"/><path class="cls-1" d="M440.57,497.69c28.23,26.55,35.51,31.27,40.5,34.84s7.75,6.2,10,11.25,4.11,12.54,19.61,33.3" transform="translate(-229.06 -181.58)"/><path class="cls-1" d="M446.83,382.51a3.56,3.56,0,0,0,.27-.61c1-2.76,1.75-4.65,2.5-6.46s1.41-3.64,2.29-6.14,1.95-5.79,2.49-8.22a23.78,23.78,0,0,0,.54-5.59,9.75,9.75,0,0,0-.4-3.64,3.13,3.13,0,0,0-2.09-1.82c-.88-.34-1.82-.34-3-.74a31.72,31.72,0,0,0-4-1.55,17.86,17.86,0,0,0-4.65-.41h-4a5,5,0,0,0-2.16.27c-.54.34-1.15.95-2,1.62a28.2,28.2,0,0,0-2.43,1.95c-.47.61-.47,1.15-1.28,1.89a27.94,27.94,0,0,1-3.17,2c-.8.41-.8.41-.13.41s2,0,3.5.13,3.1.47,4.38.61a18.74,18.74,0,0,0,3.24.2H445a11.52,11.52,0,0,0,4.65-.67,29.92,29.92,0,0,0,5.19-2.83" transform="translate(-229.06 -181.58)"/><path class="cls-1" d="M468.4,383.45a50.75,50.75,0,0,1,3.5-9.77c1.69-3.91,2.9-6.33,6.88-9a68.86,68.86,0,0,1,15.43-7.28c4.65-1.48,7.35-1.48,10.24-.87a52.38,52.38,0,0,1,8.56,2.83,25.55,25.55,0,0,1,6.27,3,37.89,37.89,0,0,1,4.65,4.38c.94,1,.94,1-.94,1.21a56,56,0,0,1-10.25.48,89.17,89.17,0,0,1-14.08-2,38.86,38.86,0,0,1-8.16-2.56,11,11,0,0,1-3.7-2c-.61-.74-.61-1.55-1.22-3.51s-1.82-5.12-2.49-8.08-.61-5.73.27-7.75,2.7-3.31,5.12-4.45a19.77,19.77,0,0,1,8.9-2c3.17.06,6.47,1.21,10.44,2.29s8.77,2.16,12.47,3.3a60.89,60.89,0,0,1,9.5,4,94.07,94.07,0,0,1,9,5.05c2.22,1.55,3.1,2.7,2.36,3.71s-3.1,1.75-6.27,1.89A39.31,39.31,0,0,1,524.34,355a54.93,54.93,0,0,1-9.24-3.3c-2.56-1.14-4.51-2.15-7.07-3.3a52.48,52.48,0,0,0-8.5-3c-2.56-.61-4.51-.61-6.73-1.15a22.5,22.5,0,0,1-6.14-2.63c-1.28-.94-1.28-1.61-1.28-1.61" transform="translate(-229.06 -181.58)"/><path class="cls-1" d="M446.83,382.51a28.86,28.86,0,0,1-4.18,7.08A19.78,19.78,0,0,0,440.7,393c-.54,1.21-1,2.56-1.48,3.91a10.75,10.75,0,0,0-.81,4.24,13.64,13.64,0,0,0,1.21,4.92,6.8,6.8,0,0,0,2.9,3.1c1.35.88,3.23,1.75,4.85,1.42s2.83-1.89,5.12-2.9a19.91,19.91,0,0,1,8.29-1.48,28.61,28.61,0,0,1,6.68,1.48,13.37,13.37,0,0,0,5.52.61,5.68,5.68,0,0,0,4-2.36,7.13,7.13,0,0,0,.53-4.79,6.36,6.36,0,0,0-2.29-4.72c-1.68-1.14-4.58-1.75-6.26-2.49a3.82,3.82,0,0,1-2.43-2.69,6.1,6.1,0,0,1,.27-3.71c.54-1.69,1.55-4.05,1.55-4.05" transform="translate(-229.06 -181.58)"/><path class="cls-1" d="M578.32,449.7c25.74,9,28.51,9,29.85,13.55s1.35,13.61.27,20.82a43.71,43.71,0,0,1-6.13,17.53c-3,4.85-6.94,9-7.88,10.58s1.21.27-2.63,4.38a192.67,192.67,0,0,1-21.57,19.14,59.1,59.1,0,0,1-18.94,9.37c-5.25,1.68-9.9,2.89-13.81,5.45s-6.94,6.54-9.57,12.34-4.59,13.21-6.67,22.71-4.18,21-5.26,29.38-1.08,13.68-3.64,26.35-7.68,32.76-10.24,50.75a297.28,297.28,0,0,0-2.57,42.8v11.79" transform="translate(-229.06 -181.58)"/><path class="cls-1" d="M432.68,481.92c0,27.43,3.37,33.49,5.73,40.91s3.77,16,3.17,22.44-3.17,10.78-3,14.62,3.1,7.35,8.23,11.93a191,191,0,0,0,19.14,14.89c6.8,4.65,13.2,8.29,17.85,12.27a45.36,45.36,0,0,1,10.05,12.67c2.42,4.38,4.44,8.76,5.39,18.67s1,25.07-.07,44.88S496,719.48,495,734.37s-1.08,20.16-10.85,22.85-29.45,2.63-50.14,2.63H370.75c-20.83,0-40.71,0-14.76,2.29s97.78,7,154.93,9.37,99.75,2.36,126,3.91,36.26,4.78,29.93,13.81" transform="translate(-229.06 -181.58)"/><path class="cls-1" d="M432.81,489c-3.23,64.84-3.23,64.84-3.23,66.66s0,5.39,3.64,10.71,10.85,12.2,16.44,17.66,9.51,9.3,13.89,12.8,9.23,6.47,15.9,10.92,15.37,10.38,17.52,10.85" transform="translate(-229.06 -181.58)"/><path class="cls-1" d="M512.07,642.85s7.62-16.91,11.46-28,3.84-16.38,4.92-22.11a89.58,89.58,0,0,1,5-16.51c1.82-4.58,3.31-7.61,5.73-10.31s5.73-5.12,15.5-11.32,26.15-16.18,37.27-24,17.19-13.62,21-18.27S618.22,504,619,495.4s.74-22.18-1.22-29.72-5.86-9-13-12.4-17.39-8.36-26.42-7.89" transform="translate(-229.06 -181.58)"/><path class="cls-1" d="M433.89,506c-53.91,23.79-67.32,35.65-81.21,44.75s-28.1,15.43-41.31,38.41-25.2,62.61-31.47,91-6.88,45.63-9.3,82.16" transform="translate(-229.06 -181.58)"/><path class="cls-1" d="M620.84,475.85c28.51,36.46,56.21,57.08,76.7,71.84s33.63,23.79,47.65,33.84,28.77,21.09,38.27,42.52,13.75,53,15.84,74.47,2.09,32.48,2.09,53.31,0,51.56,4.79,73.19,14.22,34.3,19,43.33,4.72,14.22-1.89,10.85-19.74-15.63-34.3-30.66-30.33-33-50.14-48.73-43.6-29.18-72-10.58" transform="translate(-229.06 -181.58)"/><path class="cls-1" d="M440.57,497.69c28.23,26.55,35.51,31.27,40.5,34.84s7.75,6.2,10,11.25,4.11,12.54,19.61,33.3" transform="translate(-229.06 -181.58)"/><path class="cls-1" d="M666.81,789.23c-99.88,34.64-137.08,29.93-246.4,22.78-52-3.4-120.43-7.34-191.32-12.41" transform="translate(-229.06 -181.58)"/></g></svg>