<svg xmlns="http://www.w3.org/2000/svg" viewBox="0 0 719.23 613.72"><defs><style>.cls-1{fill:none;stroke:#1a1a1a;stroke-linejoin:round;}</style></defs><g id="Miguel"><path class="cls-1" d="M444.73,412.73c-.15-1.9-.29-3.67-.59-5.87-.14-2.06-.29-4.41-1.47-5.58-1.61-1.47-5.14-.44-7.78-1-3.08-.88-4.7-4.11-6.17-7.2-3.67-8.08-5.87-15.42-6.46-23.65a72.94,72.94,0,0,1,0-11.45c.59-7.05,2.2-12.78,6.46-20.86,7.34-13.66,22-33.78,18.36-32.17-3.08,1.32-19.39,18.36-23.94,20.27-5.29,2.06,4.41-15.42,14.25-32.9" transform="translate(-115.6 -178.43)"/><path class="cls-1" d="M424.75,228.1h2.8a28.27,28.27,0,0,1,10.28,2.79c3.08,1.47,6,3.53,9,5.29a54.31,54.31,0,0,1,7.64,5.14,19.57,19.57,0,0,1,3.81,4,19.87,19.87,0,0,1,2.06,4" transform="translate(-115.6 -178.43)"/><path class="cls-1" d="M460.3,249.25a25.31,25.31,0,0,0,1.47-8.52c-.29-4.84-3.82-9.25-6.17-14.1-2.06-4-3.08-8.08-5.43-11.45a44.42,44.42,0,0,0-4.7-5.59" transform="translate(-115.6 -178.43)"/><path class="cls-1" d="M445.47,209.59A9,9,0,0,1,449,206.8c2.06-.88,4.85,0,7.34,0a13.19,13.19,0,0,0,8.23-3.67c2.64-2.79,4-6.61,5.14-10.43" transform="translate(-115.6 -178.43)"/><path class="cls-1" d="M469.7,192.7c1.91,1.77,3.82,3.53,5.58,5.29,5.88,6.32,10,13.81,14,21.3,2.2,4,4.26,7.93,6.31,11.9" transform="translate(-115.6 -178.43)"/><path class="cls-1" d="M495.55,231.19c2.79-7.79,5.44-15.72,5.88-23.95a42.29,42.29,0,0,0-1.76-14.83l-1.77-5.29" transform="translate(-115.6 -178.43)"/><path class="cls-1" d="M497.9,187.12c1.32-.44,2.79-1,4.26-1.47.3-.14.74-.29,1.18-.44a91.33,91.33,0,0,1,9.69-2.64c5.58-1.18,11.17-2.35,16.89-3.09a62.06,62.06,0,0,1,16.45,0,28.1,28.1,0,0,1,6,1.62c5.58,2.05,10.13,6.17,15.27,9.4,9.26,6,20,9.25,29.82,14.39,7,3.68,13.66,8.23,20.27,12.64a41.66,41.66,0,0,1,4.26,2.79" transform="translate(-115.6 -178.43)"/><path class="cls-1" d="M622,220.32c-1.32-.3-2.79-.59-4.11-.88-10.87-2.35-21.15-5-32.32-7.94-7.49-2.05-15.27-4.4-22.32-2.49a42,42,0,0,0-7.2,2.79" transform="translate(-115.6 -178.43)"/><path class="cls-1" d="M557.83,328.28c1.32-.44,2.5-.74,3.67-1,3.68-.74,7.49,0,11.17,0,4.11-.15,8.22-1.18,12.34-1.47a29.06,29.06,0,0,1,14.68,3.38c2.94,1.61,5.73,3.67,7,6.61.3.88.44,1.76.74,2.64" transform="translate(-115.6 -178.43)"/><path class="cls-1" d="M554.6,352.22c1.18-.74,2.5-1.62,3.82-2.35,3.52-1.91,7.34-3.53,11.16-3.82a33.36,33.36,0,0,1,8.52.88c4,.74,8.08,1.76,11.16,4.11a28.3,28.3,0,0,1,3.09,2.79" transform="translate(-115.6 -178.43)"/><path class="cls-1" d="M592.35,353.83c-1.91.74-3.67,1.33-5.58,1.91a43.48,43.48,0,0,1-16.89.88,51.6,51.6,0,0,1-12.49-3.23,15.57,15.57,0,0,1-2.79-1.17" transform="translate(-115.6 -178.43)"/><path class="cls-1" d="M622,220.32a103.15,103.15,0,0,1,14,11.45c5.59,5.59,10.14,12.49,11.31,20.13a30.58,30.58,0,0,1,0,9.69c-.88,7.79-3.08,15.57-1.61,22.91s6.75,14.11,8.37,21.3c2.2,10.43-3.08,21.6-7.49,32.17-3.53,8.37-6.46,16.45-7.79,25-.58,3.09-.73,6.17-1,9.4" transform="translate(-115.6 -178.43)"/><path class="cls-1" d="M622.61,369.55c-.74,7.2-1.32,14.4-3.38,25.41-1.76,10.14-4.55,23.5-1.32,23.5,2.05,0,6.9-6.17,10.43-11.75,7.78-12.78,8.66-23.65,9.4-34.37" transform="translate(-115.6 -178.43)"/><path class="cls-1" d="M487.18,428.74c1.91,3.82,4,7.5,6.17,11.17,4,6,8.81,11.75,14.83,15.13,5.29,3.08,11.76,4.11,18.22,4.7,9,.88,18.36.73,25.7-3.38,4.85-2.64,9-6.9,12.78-11.31,3.09-3.53,5.88-7.05,8.81-10.58" transform="translate(-115.6 -178.43)"/><path class="cls-1" d="M573.69,434.47a27,27,0,0,0-6.16,1.18c-3.82,1.47-6.61,5-9.85,7.78A30.65,30.65,0,0,1,542,450.19c-5.58.59-11-.59-16.75-1.62-7.05-1-14.24-2.05-19.39-6.31-2.05-1.76-3.67-4-5.72-5.73-1.62-1.47-3.38-2.5-5.44-4.26a1.53,1.53,0,0,1-.88-.73c-.59-1,2.64-1,5-1.18,2.65-.29,4.12-.73,5.73-.73,3.67-.15,8.23,2.05,12.63,3.37a43,43,0,0,0,16,1.77c5.29-.3,10.73-1.32,16.16-1,5.88.44,11.75,2.5,17.48,1.91a40.75,40.75,0,0,0,7.05-1.62" transform="translate(-115.6 -178.43)"/><path class="cls-1" d="M573.84,434c-3.67-.88-7.34-1.91-10.87-2.93-4.55-1.33-9.25-2.94-13.8-2.94-4.85,0-9.7,1.76-14.55,1.76-3.82,0-7.63-1.17-11.45-2.5a78.6,78.6,0,0,0-11-3.08c-8.22-1-16.6,1.61-25,4.41" transform="translate(-115.6 -178.43)"/><path class="cls-1" d="M607.48,338.41a12.65,12.65,0,0,1,.59,3.23c-.15,3.53-3.68,7.49-7.05,7.93-2.8.45-5.59-1.32-8.23-2.79-6.17-3.52-11.9-5.58-19.1-5.72-6.75-.15-14.68,1.46-17.62,6.75a15.27,15.27,0,0,0-1.47,4.41" transform="translate(-115.6 -178.43)"/><path class="cls-1" d="M465.15,241a142.55,142.55,0,0,1,16.45,8.22,146.52,146.52,0,0,1,17,13.08" transform="translate(-115.6 -178.43)"/><path class="cls-1" d="M498.64,262.33a85.86,85.86,0,0,1-6.76-13.81c-2.5-6.61-3.52-14.1-1.17-20.27a23.79,23.79,0,0,1,7.05-9.55c6.17-5.29,14.39-7.78,22-9.69a46.83,46.83,0,0,1,15.86-1.33c4.41.59,9.26,1.91,11.75-1,4-4.26,2.5-18.36,1.91-17.92-.44.44-.14,11.16-3.67,14.83-2.64,2.65-7.64,1.18-11.75,1.62-3.38.29-6.32,2.05-9,4.11a43.69,43.69,0,0,0-10,10.14c-4.41,6.75-6.31,15-7.93,23.2a119.09,119.09,0,0,0-2.35,18.95v5" transform="translate(-115.6 -178.43)"/><path class="cls-1" d="M504.66,266.59A51.28,51.28,0,0,1,507.3,255a30.39,30.39,0,0,1,8.82-12.19c9.25-8.23,21.44-9.55,36.42-10.14h3.09c2.64.45-5.58,3.24-11.9,5.73-6.61,2.79-11.16,5.14-11.46,7.94-.29,4.11,8.67,8.81,16.16,12.63,11,5.43,19,8.66,28.2,9.84,7.49.88,15.72.44,24.09.15" transform="translate(-115.6 -178.43)"/><path class="cls-1" d="M465.15,241c.59,1.76,1.32,3.52,2.05,5.14,2.21,5.73,5,11.31,7.64,16.74" transform="translate(-115.6 -178.43)"/><path class="cls-1" d="M445,385c-5.72-20.41-6-21.15-6-21.74a25,25,0,0,1-.44-5.72c.3-12.2,3.53-21.89,6-29.67,2.94-9.26,5-15.87,7.2-24.53.88-3.68,1.91-7.79-3.38-10.43-3.08-1.62-8.08-2.65-13.8-13.22" transform="translate(-115.6 -178.43)"/><path class="cls-1" d="M480.13,275.84c-18.65-15.42-37.31-30.85-34.66-30.7,2,.15,15.71,9,29.37,17.77" transform="translate(-115.6 -178.43)"/><path class="cls-1" d="M428.43,255.72c17.18,6.75,34.37,13.51,51.7,20.12" transform="translate(-115.6 -178.43)"/><path class="cls-1" d="M489.24,475.31c-6.76-11.31-13.37-22.77-18.22-35a253.88,253.88,0,0,1-8.22-27.91" transform="translate(-115.6 -178.43)"/><path class="cls-1" d="M431.51,356c-.29-.59-.88-.44-1.47-.44-8.66,0-11.16-8.82-12.34-17.19-1.17-7.49-1.17-14.69-1.32-21.3,0-5-.14-9.69,0-14.24a137,137,0,0,1,2.79-23.95c1.18-5.14,2.79-10.28,6.47-13.51,2.2-1.91,5.43-3.08,7.78-4.85a19.67,19.67,0,0,0,5.44-6.46c1.76-2.94,3.52-6.32,2.93-9.4s-3.08-5.73-5.58-7.79c-2.94-2.64-6-4.55-9.11-6.9-.73-.59-1.46-1.17-2.35-1.91" transform="translate(-115.6 -178.43)"/><path class="cls-1" d="M434.6,279.66c-2.94-7.49-4.7-15.57-6.17-23.94" transform="translate(-115.6 -178.43)"/><path class="cls-1" d="M518.47,390a34.33,34.33,0,0,1-6.17,5.87c-1.77,1.18-3.82,2.21-4.56,4-.58,1.61.15,4,1.18,5.87a7.62,7.62,0,0,0,5.29,4.12c1.61.44,3.67.58,4,0,.74-.88-5.43-4.12-6-5-.44-.88,3.82.3,7.05,1.47,6,1.91,9,3.67,12.34,3.82,2.79.15,5.58-.73,10.13-2.2,5.59-1.62,13.52-4.26,12.34-2.35a10.15,10.15,0,0,1-4.26,2.79c-2,.73-4,.29-5.43.59a5.24,5.24,0,0,0-4.11,3.08" transform="translate(-115.6 -178.43)"/><path class="cls-1" d="M540.21,412c-2.35,3.82-4.7,7.79-7.79,8.52-4,1-9.4-3.23-14.54-4a15.09,15.09,0,0,0-6.76.44c-4.4.74-8.81,2.06-13.07,1.77-2.35-.15-4.55-.88-6.9-.44s-4.7,1.47-5.59,3.08c-.88,2.06.3,4.7,1.62,7.35" transform="translate(-115.6 -178.43)"/><path class="cls-1" d="M512.15,350.31c-.73-1.18-1.32-2.5-2.2-3.67-2.65-3.38-7.2-5.14-11.75-6a21.59,21.59,0,0,0-11-.14c-2.94.73-5.58,2.49-8.23,4.11-1.46.88-2.93,1.91-4.4,2.79" transform="translate(-115.6 -178.43)"/><path class="cls-1" d="M512.15,350.31a103.57,103.57,0,0,0-11.75.44c-4.26.44-8.37,1.32-12.49,1a28.78,28.78,0,0,1-9.69-2.65c-1.17-.58-2.5-1.17-3.67-1.76" transform="translate(-115.6 -178.43)"/><path class="cls-1" d="M445,385c-.58-6.61-1.17-13.36-1.76-20.85-.59-9.4-1.32-19.83,4.26-26,2.94-3.23,7.64-5.14,12.19-6.61a79,79,0,0,1,12.78-2.79,96.78,96.78,0,0,1,14.69-1c5.43,0,11,.29,16,2.5a68.86,68.86,0,0,1,9.25,5.43,13.94,13.94,0,0,0,2.65,1.62c.59.29,1.17.58,1.47.44s-.15-1.47-.3-2.65c-.29-2.2,1-3.52.44-5a3,3,0,0,0-.88-1.18,20.13,20.13,0,0,0-5-3.67,34.52,34.52,0,0,0-5.88-3.52c-3.38-1.47-7.34-1.47-11-1.33-5.88.15-11.46.45-17.34.89a31.1,31.1,0,0,0-9.69,1.61,13.75,13.75,0,0,0-5.43,3.67,12.18,12.18,0,0,0-2.65,4.41,5.85,5.85,0,0,0-.29,3.82,4.09,4.09,0,0,0,1.76,1.76c2.94,1.91,6.32,2.21,9.69,2.21,5.44-.15,10.73-1.47,16-2.8" transform="translate(-115.6 -178.43)"/><path class="cls-1" d="M486,335.91c.58-.14,1-.14,1.61-.29a29.34,29.34,0,0,1,18.07,3.09c3.67,1.9,7.49,4.84,7.34,8.22a8.86,8.86,0,0,1-.88,3.38" transform="translate(-115.6 -178.43)"/><path class="cls-1" d="M462.8,412.44a29.54,29.54,0,0,0-4.12-9c-3.08-4.26-8.51-6.76-12.33-10.43-2.79-2.49-4.85-5.58-7.05-8.81-4.41-6.76-9.7-13.95-8.23-21.59a18.84,18.84,0,0,0,.88-4.12c-.14-.73-.29-1.61-.44-2.49" transform="translate(-115.6 -178.43)"/><path class="cls-1" d="M556.07,211.8a79.51,79.51,0,0,0,9.84,5.43c7.34,3.38,15.57,5.29,22.77,7.49,12.48,3.82,21.15,8.67,38.48,18.22,5.29,2.93,11.31,6.31,10.58,7.63s-7,.59-12,0a129,129,0,0,1-15.86-3.23c-8.67-1.91-19-4.11-28.2-5.87-6.76-1.32-12.93-2.35-21.45,0-1.61.44-3.52,1-4,1.76-1,1.32,4.11,2.94,8.07,4.55,6.47,2.65,9.4,5.29,13.37,7.64,7.79,4.41,19.39,7.35,28.64,10.43,11.17,4,19.1,8.37,34.67,11.9,11,2.5,25.56,4.55,25,5.58s-13.22.88-22.77,0c-11-1-17.92-3.23-25.41-5.43a87.09,87.09,0,0,0-21.15-4.12c-1.76,0-3.53-.14-4.55,0-6.32.74,13.36,7.05,24.82,11.31s14.39,6.47,25.26,9.11c7.2,1.76,17.78,3.67,17,5.73-.59,1.47-7.49,3.08-12.78,3.52-10.43,1.18-15-1.76-25-6.75-5.73-2.79-13.07-6.32-13.8-5.29-.74.88,4.7,5.87,11.16,8.81,11.31,5,25.7,3.53,24.09,7-.88,1.76-6,4.85-10.14,8.37-5.14,4.41-8.37,9.26-9.55,14-1.76,7.78,2.8,15,5.29,25.85.88,4.11,1.62,8.67,4.85,20" transform="translate(-115.6 -178.43)"/><path class="cls-1" d="M622.61,369.55v-.29c-.3-.59.29-5.58,0-9.55-.88-9.25-6.17-13.37-11.61-18.65a14.72,14.72,0,0,0-3.52-2.65,10.3,10.3,0,0,0-4.26-.59c-3.53,0-6.9.44-10.28,0s-6.61-1.91-10-2.35a40.23,40.23,0,0,0-7.2,0,65,65,0,0,0-15.86,2.5c-3.38,1-7.49,2.35-7.79,1.47-.14-.73,2.35-3.09,3.68-5.14a12.88,12.88,0,0,0,2.05-6" transform="translate(-115.6 -178.43)"/><path class="cls-1" d="M445.32,442.41c-1.18,19.53-2.2,39.07-6.17,57.57-3.67,17.48-9.84,34.08-7.79,53.91.45,4,1.18,7.93,2.5,10.58,5.58,10.72,21.89-6.47,42.16-18.66,29.81-17.62,68.45-24.23,63.89-22.47-2.35,1-17,4.4-33.63,13.22-5.73,3.08-11.61,6.75-10,7.34.88.3,4-.14,6.75,0,7.49.59,12.2,6.91,13.22,12.63,1.33,7.35-2.79,14-8.81,21-8.67,10.28-21.15,21.59-18.21,27.17,2.35,4.56,15.42,5,26.58,4.85,20-.29,33.64-2.94,47.59-11.16,9-5.29,17.92-12.93,23.21-21.16,5.14-8.07,6.76-16.74,6.46-30.25-.14-6.17-.73-13.22,0-14,.74-1,3.68,9.11,5.14,17.78,3.68,21.73-1.17,34.66-11,45.09-12.78,13.51-33.93,22.77-54.5,25.56-22.18,2.93-43.77-1.33-63.45-10.58-24.38-11.46-45.83-30.55-59.49-53.17-4.55-7.64-8.37-15.72-9.25-25.26-.3-3.09-.3-6.32.73-8.67,2.06-5,8.82-5.58,16-9.11" transform="translate(-115.6 -178.43)"/><path class="cls-1" d="M417.41,514.67c.59-.29,1.18-.73,1.76-1,9.11-5.14,18.51-16.15,17.48-16.59s-9.69,7.34-17.33,11.89c-9,5.29-16.3,5.88-23.5,7.64-20.12,4.7-40.54,16.89-62.13,26.73-40.25,18.22-84.17,28.21-111.78,57.88-15.57,16.74-26,39.8-34.23,61.84-9.4,24.67-16,48.17-22,71.67-3.52,14-6.9,27.91-10.72,38-4,10.42-8.38,16.59-39.3,18.89" transform="translate(-115.6 -178.43)"/><path class="cls-1" d="M834.61,758.77a100.15,100.15,0,0,1-26.19-17.31c-6.32-5.58-10.87-10.28-14.55-18.36s-6.46-19.68-8.52-27.32c-1.46-5.88-2.49-9.25-3.37-12.48-3.82-12.78-6.17-20.86-7.79-26.59-1.61-5.14-2.5-8.08-10.72-22.91-3.38-6-7.93-13.81-13.66-20.42-10.72-12.63-25.85-21.15-41.13-28.94C684.45,572,659.77,561.23,637.15,551c-16.75-7.49-32.32-14.54-48-32.46l-.44-.44c-.3-.29-.44-.44-.59-.44-1.47-.29-2.64,4.7-3.67,9.84-4.12,20.71-6.47,45.83-5.73,48.62,1.17,4.11,9.55-41.72,13.95-61.84a1.29,1.29,0,0,0,.15-.73c1.32-5.88,2.2-11.75,3.23-17.48,3.38-21,7.64-38.63,7.93-41.28.3-1.76-1,2.79-8.66,12.78a80.3,80.3,0,0,1-9.11,10.28c-7.64,7.2-17.77,12.78-27.32,18.36l-1.32.89c-6,3.23-13.22,3.52-20.27,3.52-12.78.15-25.12-.59-37.31-3.38-2.2-.44-4.55-1.17-6.9-1.61-.89-.3-1.77-.44-2.5-.74-2.5-1-4.26-3.08-6.17-5-9.69-10.14-19.24-18.8-28.64-28.79a11.46,11.46,0,0,1-2.06-2.5,6.21,6.21,0,0,0-.73-1.32c-3.24-7.05-5-14.83-7-22.33a4.46,4.46,0,0,1-.3-1.17,34.19,34.19,0,0,1-.59-8.37c0-4.26-.29-6.61-.29-12.64" transform="translate(-115.6 -178.43)"/></g></svg>